<svg width="153" height="98" viewBox="0 0 153 98" fill="#1D1A17" xmlns="http://www.w3.org/2000/svg">
<path d="M0.0939328 31.1722C0.0725128 33.1549 0.0629825 33.0302 0.0737225 34.0103C0.0992725 36.3416 2.53951 38.6525 4.56008 38.6525H148.139C150.607 38.6547 152.384 36.9624 152.407 34.1602C152.407 34.1602 152.386 32.163 152.392 31.4679C151.543 21.9733 139.34 13.4888 132.468 12.5181C133.871 14.3843 134.417 15.4988 134.925 18.2241C126.773 8.36983 111.14 0.174624 85.5515 0C93.8389 5.16716 102.143 9.57499 105.698 17.3914C95.3692 8.51239 88.9261 0.833731 63.4605 0.0192719C52.5198 0.309124 41.7586 3.02461 34.7102 7.20684C43.9577 9.83476 53.9482 15.3698 56.0483 21.582C52.6702 17.8687 45.3954 13.248 33.3625 11.9237H24.1535C12.7422 12.9207 0.177081 23.4742 0.0939328 31.1722Z" />
<path d="M0.12045 85.797L0.00133226 91.0377C-0.0800277 94.6171 3.58062 97.5364 6.71167 97.5364H146.221C149.462 97.5364 152.781 94.7011 152.781 90.8123V86.0652L0.12045 85.797Z"/>
<path d="M150.21 80.7244V83.8192H2.50293V80.603L150.21 80.7244Z"/>
<path d="M7.12 65V45.4H12.804C15.828 45.4 18.32 47.892 18.32 50.916C18.32 52.848 17.172 54.332 15.884 55.2C17.172 56.068 18.32 57.524 18.32 59.484C18.32 62.508 15.828 65 12.804 65H7.12ZM9.444 54.052H12.804C14.568 54.052 15.996 52.624 15.996 50.916C15.996 49.152 14.568 47.724 12.804 47.724H9.444V54.052ZM9.444 62.676H12.804C14.568 62.676 15.996 61.248 15.996 59.484C15.996 57.748 14.568 56.376 12.804 56.376H9.444V62.676Z" />
<path d="M20.2723 65V50.72C20.2723 47.64 22.7923 45.12 25.8723 45.12C28.9523 45.12 31.4723 47.64 31.4723 50.72V65H29.1483V56.376H22.5963V65H20.2723ZM22.5963 54.052H29.1483V50.72C29.1483 48.9 27.6923 47.444 25.8723 47.444C24.0523 47.444 22.5963 48.9 22.5963 50.72V54.052Z" />
<path d="M33.7255 65V50.72C33.7255 47.64 36.2455 45.12 39.3255 45.12C42.4055 45.12 44.9255 47.64 44.9255 50.72V65H42.6015V50.72C42.6015 48.9 41.1455 47.444 39.3255 47.444C37.5055 47.444 36.0495 48.9 36.0495 50.72V65H33.7255Z" />
<path d="M47.1786 65V45.4H49.5026V54.052H56.0546V45.4H58.3786V65H56.0546V56.376H49.5026V65H47.1786Z"/>
<path d="M64.8427 65V50.72C64.8427 47.64 67.3627 45.12 70.4427 45.12C72.4587 45.12 73.9986 46.268 74.8667 47.612C75.7626 46.268 77.3027 45.12 79.3187 45.12C82.3987 45.12 84.9187 47.64 84.9187 50.72V65H82.5947V50.72C82.5947 48.9 81.1387 47.444 79.3187 47.444C77.5267 47.444 76.0427 48.9 76.0427 50.72V65H73.7187V50.72C73.7187 48.9 72.2067 47.444 70.4427 47.444C68.6227 47.444 67.1667 48.9 67.1667 50.72V65H64.8427Z" />
<path d="M87.1552 65V45.4H89.4792V65H87.1552Z"/>
<path d="M95.9325 65V45.4H101.617C104.641 45.4 107.132 47.892 107.132 50.916C107.132 52.848 105.984 54.332 104.696 55.2C105.984 56.068 107.132 57.524 107.132 59.484C107.132 62.508 104.641 65 101.617 65H95.9325ZM98.2565 54.052H101.617C103.381 54.052 104.809 52.624 104.809 50.916C104.809 49.152 103.381 47.724 101.617 47.724H98.2565V54.052ZM98.2565 62.676H101.617C103.381 62.676 104.809 61.248 104.809 59.484C104.809 57.748 103.381 56.376 101.617 56.376H98.2565V62.676Z" />
<path d="M109.085 65V45.4H114.769C117.849 45.4 120.285 47.92 120.285 50.86C120.285 52.82 119.305 54.332 117.905 55.284C119.305 56.32 120.005 57.692 120.005 59.484V65H117.681V59.484C117.681 57.776 116.421 56.376 114.685 56.376H111.409V65H109.085ZM111.409 54.052H114.769C116.505 54.052 117.961 52.68 117.961 50.86C117.961 49.18 116.561 47.724 114.769 47.724H111.409V54.052Z" />
<path d="M127.837 65.28C124.757 65.28 122.237 62.76 122.237 59.68V50.72C122.237 47.64 124.757 45.12 127.837 45.12C130.917 45.12 133.437 47.64 133.437 50.72V59.68C133.437 62.76 130.917 65.28 127.837 65.28ZM127.837 62.956C129.657 62.956 131.113 61.5 131.113 59.68V50.72C131.113 48.9 129.657 47.444 127.837 47.444C126.017 47.444 124.561 48.9 124.561 50.72V59.68C124.561 61.5 126.017 62.956 127.837 62.956Z" />
<path d="M135.41 59.4H137.734V59.68C137.734 61.5 139.19 62.956 141.01 62.956C142.83 62.956 144.286 61.5 144.286 59.68C144.286 57.776 142.97 56.656 141.01 56.404C137.37 55.956 135.41 53.772 135.41 50.72C135.41 47.64 137.93 45.12 141.01 45.12C144.09 45.12 146.61 47.64 146.61 50.72V51H144.286V50.72C144.286 48.9 142.83 47.444 141.01 47.444C139.19 47.444 137.734 48.9 137.734 50.72C137.734 52.652 139.05 53.744 141.01 53.996C144.65 54.444 146.61 56.628 146.61 59.68C146.61 62.76 144.09 65.28 141.01 65.28C137.93 65.28 135.41 62.76 135.41 59.68V59.4Z" />
<path d="M10.2425 74.07H8.2775L7.9625 75H6.62L8.525 69.735H10.01L11.915 75H10.5575L10.2425 74.07ZM9.9125 73.08L9.26 71.1525L8.615 73.08H9.9125Z"/>
<path d="M13.7548 69.735V72.885C13.7548 73.2 13.8323 73.4425 13.9873 73.6125C14.1423 73.7825 14.3698 73.8675 14.6698 73.8675C14.9698 73.8675 15.1998 73.7825 15.3598 73.6125C15.5198 73.4425 15.5998 73.2 15.5998 72.885V69.735H16.8823V72.8775C16.8823 73.3475 16.7823 73.745 16.5823 74.07C16.3823 74.395 16.1123 74.64 15.7723 74.805C15.4373 74.97 15.0623 75.0525 14.6473 75.0525C14.2323 75.0525 13.8598 74.9725 13.5298 74.8125C13.2048 74.6475 12.9473 74.4025 12.7573 74.0775C12.5673 73.7475 12.4723 73.3475 12.4723 72.8775V69.735H13.7548Z" />
<path d="M21.5704 69.735V70.7625H20.1754V75H18.8929V70.7625H17.4979V69.735H21.5704Z" />
<path d="M26.774 69.735V75H25.4915V72.8325H23.4965V75H22.214V69.735H23.4965V71.7975H25.4915V69.735H26.774Z" />
<path d="M28.9824 70.7625V71.8275H30.6999V72.8175H28.9824V73.9725H30.9249V75H27.6999V69.735H30.9249V70.7625H28.9824Z" />
<path d="M36.4675 75H35.185L33.04 71.7525V75H31.7575V69.735H33.04L35.185 72.9975V69.735H36.4675V75Z" />
<path d="M41.1846 69.735V70.7625H39.7896V75H38.5071V70.7625H37.1121V69.735H41.1846Z" />
<path d="M43.1108 69.735V75H41.8283V69.735H43.1108Z" />
<path d="M43.8227 72.36C43.8227 71.84 43.9352 71.3775 44.1602 70.9725C44.3852 70.5625 44.6977 70.245 45.0977 70.02C45.5027 69.79 45.9602 69.675 46.4702 69.675C47.0952 69.675 47.6302 69.84 48.0752 70.17C48.5202 70.5 48.8177 70.95 48.9677 71.52H47.5577C47.4527 71.3 47.3027 71.1325 47.1077 71.0175C46.9177 70.9025 46.7002 70.845 46.4552 70.845C46.0602 70.845 45.7402 70.9825 45.4952 71.2575C45.2502 71.5325 45.1277 71.9 45.1277 72.36C45.1277 72.82 45.2502 73.1875 45.4952 73.4625C45.7402 73.7375 46.0602 73.875 46.4552 73.875C46.7002 73.875 46.9177 73.8175 47.1077 73.7025C47.3027 73.5875 47.4527 73.42 47.5577 73.2H48.9677C48.8177 73.77 48.5202 74.22 48.0752 74.55C47.6302 74.875 47.0952 75.0375 46.4702 75.0375C45.9602 75.0375 45.5027 74.925 45.0977 74.7C44.6977 74.47 44.3852 74.1525 44.1602 73.7475C43.9352 73.3425 43.8227 72.88 43.8227 72.36Z" />
<path d="M56.2849 69.735L54.4174 75H52.8124L50.9449 69.735H52.3099L53.6149 73.71L54.9274 69.735H56.2849Z" />
<path d="M58.1035 69.735V75H56.821V69.735H58.1035Z" />
<path d="M60.3154 70.7625V71.8275H62.0329V72.8175H60.3154V73.9725H62.2579V75H59.0329V69.735H62.2579V70.7625H60.3154Z" />
<path d="M66.878 69.735V70.7625H65.483V75H64.2005V70.7625H62.8055V69.735H66.878Z" />
<path d="M72.2316 75H70.9491L68.8041 71.7525V75H67.5216V69.735H68.8041L70.9491 72.9975V69.735H72.2316V75Z" />
<path d="M76.4388 74.07H74.4738L74.1588 75H72.8163L74.7213 69.735H76.2063L78.1113 75H76.7538L76.4388 74.07ZM76.1088 73.08L75.4563 71.1525L74.8113 73.08H76.1088Z" />
<path d="M84.6536 69.735V75H83.3711V71.8425L82.1936 75H81.1586L79.9736 71.835V75H78.6911V69.735H80.2061L81.6836 73.38L83.1461 69.735H84.6536Z" />
<path d="M86.8583 70.7625V71.8275H88.5758V72.8175H86.8583V73.9725H88.8008V75H85.5758V69.735H88.8008V70.7625H86.8583Z" />
<path d="M91.5385 75.0525C91.1535 75.0525 90.8085 74.99 90.5035 74.865C90.1985 74.74 89.9535 74.555 89.7685 74.31C89.5885 74.065 89.4935 73.77 89.4835 73.425H90.8485C90.8685 73.62 90.936 73.77 91.051 73.875C91.166 73.975 91.316 74.025 91.501 74.025C91.691 74.025 91.841 73.9825 91.951 73.8975C92.061 73.8075 92.116 73.685 92.116 73.53C92.116 73.4 92.071 73.2925 91.981 73.2075C91.896 73.1225 91.7885 73.0525 91.6585 72.9975C91.5335 72.9425 91.3535 72.88 91.1185 72.81C90.7785 72.705 90.501 72.6 90.286 72.495C90.071 72.39 89.886 72.235 89.731 72.03C89.576 71.825 89.4985 71.5575 89.4985 71.2275C89.4985 70.7375 89.6759 70.355 90.031 70.08C90.386 69.8 90.8485 69.66 91.4185 69.66C91.9985 69.66 92.466 69.8 92.821 70.08C93.176 70.355 93.366 70.74 93.391 71.235H92.0035C91.9935 71.065 91.931 70.9325 91.816 70.8375C91.701 70.7375 91.5535 70.6875 91.3735 70.6875C91.2185 70.6875 91.0935 70.73 90.9985 70.815C90.9035 70.895 90.856 71.0125 90.856 71.1675C90.856 71.3375 90.936 71.47 91.096 71.565C91.256 71.66 91.506 71.7625 91.846 71.8725C92.186 71.9875 92.461 72.0975 92.671 72.2025C92.886 72.3075 93.071 72.46 93.226 72.66C93.381 72.86 93.4585 73.1175 93.4585 73.4325C93.4585 73.7325 93.381 74.005 93.226 74.25C93.076 74.495 92.856 74.69 92.566 74.835C92.276 74.98 91.9334 75.0525 91.5385 75.0525Z" />
<path d="M95.5302 70.7625V71.8275H97.2477V72.8175H95.5302V73.9725H97.4727V75H94.2477V69.735H97.4727V70.7625H95.5302Z" />
<path d="M101.8 75.0525C101.415 75.0525 101.07 74.99 100.765 74.865C100.46 74.74 100.215 74.555 100.03 74.31C99.8497 74.065 99.7547 73.77 99.7447 73.425H101.11C101.13 73.62 101.197 73.77 101.312 73.875C101.427 73.975 101.577 74.025 101.762 74.025C101.952 74.025 102.102 73.9825 102.212 73.8975C102.322 73.8075 102.377 73.685 102.377 73.53C102.377 73.4 102.332 73.2925 102.242 73.2075C102.157 73.1225 102.05 73.0525 101.92 72.9975C101.795 72.9425 101.615 72.88 101.38 72.81C101.04 72.705 100.762 72.6 100.547 72.495C100.332 72.39 100.147 72.235 99.9922 72.03C99.8372 71.825 99.7597 71.5575 99.7597 71.2275C99.7597 70.7375 99.9372 70.355 100.292 70.08C100.647 69.8 101.11 69.66 101.68 69.66C102.26 69.66 102.727 69.8 103.082 70.08C103.437 70.355 103.627 70.74 103.652 71.235H102.265C102.255 71.065 102.192 70.9325 102.077 70.8375C101.962 70.7375 101.815 70.6875 101.635 70.6875C101.48 70.6875 101.355 70.73 101.26 70.815C101.165 70.895 101.117 71.0125 101.117 71.1675C101.117 71.3375 101.197 71.47 101.357 71.565C101.517 71.66 101.767 71.7625 102.107 71.8725C102.447 71.9875 102.722 72.0975 102.932 72.2025C103.147 72.3075 103.332 72.46 103.487 72.66C103.642 72.86 103.72 73.1175 103.72 73.4325C103.72 73.7325 103.642 74.005 103.487 74.25C103.337 74.495 103.117 74.69 102.827 74.835C102.537 74.98 102.195 75.0525 101.8 75.0525Z" />
<path d="M108.296 69.735V70.7625H106.901V75H105.619V70.7625H104.224V69.735H108.296Z" />
<path d="M111.625 75L110.53 73.0125H110.223V75H108.94V69.735H111.093C111.508 69.735 111.86 69.8075 112.15 69.9525C112.445 70.0975 112.665 70.2975 112.81 70.5525C112.955 70.8025 113.028 71.0825 113.028 71.3925C113.028 71.7425 112.928 72.055 112.728 72.33C112.533 72.605 112.243 72.8 111.858 72.915L113.073 75H111.625ZM110.223 72.105H111.018C111.253 72.105 111.428 72.0475 111.543 71.9325C111.663 71.8175 111.723 71.655 111.723 71.445C111.723 71.245 111.663 71.0875 111.543 70.9725C111.428 70.8575 111.253 70.8 111.018 70.8H110.223V72.105Z" />
<path d="M115.115 70.7625V71.8275H116.833V72.8175H115.115V73.9725H117.058V75H113.833V69.735H117.058V70.7625H115.115Z" />
<path d="M119.173 70.7625V71.8275H120.89V72.8175H119.173V73.9725H121.115V75H117.89V69.735H121.115V70.7625H119.173Z" />
<path d="M125.735 69.735V70.7625H124.34V75H123.058V70.7625H121.663V69.735H125.735Z" />
<path d="M129.807 69.735V70.7625H127.662V71.8725H129.267V72.87H127.662V75H126.379V69.735H129.807Z" />
<path d="M132.971 75.0525C132.476 75.0525 132.021 74.9375 131.606 74.7075C131.196 74.4775 130.868 74.1575 130.623 73.7475C130.383 73.3325 130.263 72.8675 130.263 72.3525C130.263 71.8375 130.383 71.375 130.623 70.965C130.868 70.555 131.196 70.235 131.606 70.005C132.021 69.775 132.476 69.66 132.971 69.66C133.466 69.66 133.918 69.775 134.328 70.005C134.743 70.235 135.068 70.555 135.303 70.965C135.543 71.375 135.663 71.8375 135.663 72.3525C135.663 72.8675 135.543 73.3325 135.303 73.7475C135.063 74.1575 134.738 74.4775 134.328 74.7075C133.918 74.9375 133.466 75.0525 132.971 75.0525ZM132.971 73.8825C133.391 73.8825 133.726 73.7425 133.976 73.4625C134.231 73.1825 134.358 72.8125 134.358 72.3525C134.358 71.8875 134.231 71.5175 133.976 71.2425C133.726 70.9625 133.391 70.8225 132.971 70.8225C132.546 70.8225 132.206 70.96 131.951 71.235C131.701 71.51 131.576 71.8825 131.576 72.3525C131.576 72.8175 131.701 73.19 131.951 73.47C132.206 73.745 132.546 73.8825 132.971 73.8825Z" />
<path d="M138.867 75.0525C138.372 75.0525 137.917 74.9375 137.502 74.7075C137.092 74.4775 136.764 74.1575 136.519 73.7475C136.279 73.3325 136.159 72.8675 136.159 72.3525C136.159 71.8375 136.279 71.375 136.519 70.965C136.764 70.555 137.092 70.235 137.502 70.005C137.917 69.775 138.372 69.66 138.867 69.66C139.362 69.66 139.814 69.775 140.224 70.005C140.639 70.235 140.964 70.555 141.199 70.965C141.439 71.375 141.559 71.8375 141.559 72.3525C141.559 72.8675 141.439 73.3325 141.199 73.7475C140.959 74.1575 140.634 74.4775 140.224 74.7075C139.814 74.9375 139.362 75.0525 138.867 75.0525ZM138.867 73.8825C139.287 73.8825 139.622 73.7425 139.872 73.4625C140.127 73.1825 140.254 72.8125 140.254 72.3525C140.254 71.8875 140.127 71.5175 139.872 71.2425C139.622 70.9625 139.287 70.8225 138.867 70.8225C138.442 70.8225 138.102 70.96 137.847 71.235C137.597 71.51 137.472 71.8825 137.472 72.3525C137.472 72.8175 137.597 73.19 137.847 73.47C138.102 73.745 138.442 73.8825 138.867 73.8825Z" />
<path d="M144.245 69.735C144.8 69.735 145.285 69.845 145.7 70.065C146.115 70.285 146.435 70.595 146.66 70.995C146.89 71.39 147.005 71.8475 147.005 72.3675C147.005 72.8825 146.89 73.34 146.66 73.74C146.435 74.14 146.113 74.45 145.693 74.67C145.278 74.89 144.795 75 144.245 75H142.273V69.735H144.245ZM144.163 73.89C144.648 73.89 145.025 73.7575 145.295 73.4925C145.565 73.2275 145.7 72.8525 145.7 72.3675C145.7 71.8825 145.565 71.505 145.295 71.235C145.025 70.965 144.648 70.83 144.163 70.83H143.555V73.89H144.163Z" />
</svg>
